<?xml version="1.0" encoding="UTF-8" standalone="no"?>
<svg
   xmlns:dc="http://purl.org/dc/elements/1.1/"
   xmlns:cc="http://creativecommons.org/ns#"
   xmlns:rdf="http://www.w3.org/1999/02/22-rdf-syntax-ns#"
   xmlns:svg="http://www.w3.org/2000/svg"
   xmlns="http://www.w3.org/2000/svg"
   xmlns:sodipodi="http://sodipodi.sourceforge.net/DTD/sodipodi-0.dtd"
   xmlns:inkscape="http://www.inkscape.org/namespaces/inkscape"
   id="Layer_1"
   version="1.1"
   viewBox="0 0 160 160"
   xml:space="preserve"
   sodipodi:docname="if_contacts_2428675.svg"
   width="64"
   height="64"
   inkscape:version="0.92.2 (5c3e80d, 2017-08-06)"><metadata
     id="metadata3747"><rdf:RDF><cc:Work
         rdf:about=""><dc:format>image/svg+xml</dc:format><dc:type
           rdf:resource="http://purl.org/dc/dcmitype/StillImage" /><dc:title></dc:title></cc:Work></rdf:RDF></metadata><defs
     id="defs3745" /><sodipodi:namedview
     pagecolor="#ffffff"
     bordercolor="#666666"
     borderopacity="1"
     objecttolerance="10"
     gridtolerance="10"
     guidetolerance="10"
     inkscape:pageopacity="0"
     inkscape:pageshadow="2"
     inkscape:window-width="1920"
     inkscape:window-height="1017"
     id="namedview3743"
     showgrid="false"
     scale-x="2.5"
     inkscape:zoom="4.24"
     inkscape:cx="100"
     inkscape:cy="100"
     inkscape:window-x="1912"
     inkscape:window-y="-8"
     inkscape:window-maximized="1"
     inkscape:current-layer="Layer_1" /><style
     type="text/css"
     id="style3724">
	.st0{fill:url(#SVGID_1_);}
	.st1{fill:url(#SVGID_2_);}
</style><g
     id="g3740"
     transform="translate(-18.938679,-19.325471)"><linearGradient
       gradientUnits="userSpaceOnUse"
       id="SVGID_1_"
       x1="149.6091"
       x2="17.6054"
       y1="175.532"
       y2="43.528198"><stop
         offset="0"
         style="stop-color:#007FE2"
         id="stop3726" /><stop
         offset="1"
         style="stop-color:#39D3B8"
         id="stop3728" /></linearGradient><path
       class="st0"
       d="m 155.405,168.352 -30.119,-13.328 c -1.751,-0.775 -3.805,0.015 -4.58,1.77 -0.776,1.754 0.016,3.805 1.77,4.58 l 30.119,13.328 c 0.457,0.202 0.933,0.298 1.404,0.298 1.332,0 2.603,-0.771 3.177,-2.068 0.775,-1.753 -0.018,-3.804 -1.771,-4.58 z"
       id="path3731"
       inkscape:connector-curvature="0"
       style="fill:url(#SVGID_1_)" /><linearGradient
       gradientUnits="userSpaceOnUse"
       id="SVGID_2_"
       x1="153.7117"
       x2="21.707899"
       y1="171.4295"
       y2="39.425701"><stop
         offset="0"
         style="stop-color:#007FE2"
         id="stop3733" /><stop
         offset="1"
         style="stop-color:#39D3B8"
         id="stop3735" /></linearGradient><path
       class="st1"
       d="m 136.18,128.063 c 2.52,-3.734 4.72,-7.846 6.557,-12.249 0.746,-0.066 1.488,-0.193 2.222,-0.38 1.581,-0.404 3.068,-1.073 4.422,-1.991 1.363,-0.924 2.542,-2.068 3.503,-3.4 0.996,-1.378 1.727,-2.915 2.173,-4.56 l 1.911,-6.973 c 0.502,-1.836 0.631,-3.718 0.382,-5.594 -0.24,-1.807 -0.819,-3.531 -1.724,-5.127 -0.905,-1.591 -2.087,-2.97 -3.513,-4.101 -0.911,-0.722 -1.898,-1.322 -2.947,-1.794 C 149.11,73.207 147.84,65.2 145.389,58.083 142.976,51.076 139.443,44.977 134.886,39.958 130.462,35.085 125.165,31.32 119.146,28.77 113.241,26.268 106.8,25 100.001,25 c -6.799,0 -13.241,1.268 -19.146,3.77 -6.023,2.551 -11.321,6.316 -15.744,11.188 -4.559,5.018 -8.094,11.116 -10.509,18.124 -2.454,7.121 -3.724,15.13 -3.779,23.816 -1.048,0.472 -2.03,1.07 -2.938,1.789 -1.429,1.131 -2.612,2.512 -3.516,4.106 -0.901,1.591 -1.48,3.315 -1.718,5.124 -0.248,1.875 -0.118,3.757 0.383,5.587 l 1.898,6.974 c 0.451,1.651 1.184,3.187 2.18,4.565 0.963,1.332 2.142,2.475 3.504,3.399 1.354,0.918 2.842,1.588 4.422,1.99 0.734,0.188 1.478,0.314 2.227,0.38 1.836,4.403 4.037,8.515 6.557,12.249 2.636,3.907 5.6,7.37 8.826,10.316 v 17.56 L 44.596,168.35 c -1.754,0.776 -2.546,2.827 -1.77,4.58 0.574,1.297 1.845,2.068 3.177,2.068 0.469,0 0.946,-0.096 1.403,-0.298 l 30.119,-13.328 c 1.257,-0.556 2.067,-1.801 2.067,-3.175 v -21.385 c 0,-1.015 -0.444,-1.979 -1.215,-2.638 -3.225,-2.759 -6.185,-6.122 -8.8,-9.998 -2.645,-3.92 -4.906,-8.321 -6.718,-13.08 -0.562,-1.475 -2.045,-2.389 -3.615,-2.216 -0.839,0.089 -1.676,0.029 -2.492,-0.178 -0.799,-0.204 -1.553,-0.544 -2.24,-1.009 -0.69,-0.468 -1.287,-1.048 -1.774,-1.721 -0.505,-0.699 -0.878,-1.481 -1.108,-2.323 l -1.899,-6.975 c -0.257,-0.939 -0.323,-1.898 -0.197,-2.85 0.121,-0.92 0.416,-1.799 0.875,-2.609 0.46,-0.81 1.061,-1.512 1.785,-2.086 0.747,-0.592 1.599,-1.022 2.399,-1.246 0.008,-0.002 0.144,-0.034 0.152,-0.036 l 0.085,-0.021 c 0.005,-10e-4 0.263,-0.062 0.268,-0.063 1.57,-0.368 2.68,-1.768 2.68,-3.381 l -0.014,-1.893 c 0,-8.143 1.145,-15.596 3.403,-22.148 2.106,-6.112 5.162,-11.4 9.084,-15.718 3.743,-4.123 8.221,-7.307 13.312,-9.463 5.044,-2.136 10.573,-3.219 16.437,-3.219 5.863,0 11.393,1.083 16.434,3.219 5.088,2.156 9.565,5.339 13.31,9.462 3.918,4.318 6.973,9.606 9.078,15.719 2.256,6.55 3.4,14.003 3.4,22.148 l -0.014,1.893 c 0,1.711 1.199,3.16 2.889,3.423 l 0.176,0.043 c 0.929,0.257 1.778,0.687 2.525,1.279 0.724,0.574 1.326,1.277 1.786,2.086 0.461,0.814 0.757,1.693 0.879,2.612 0.126,0.953 0.061,1.912 -0.195,2.848 l -1.914,6.98 c -0.228,0.843 -0.599,1.624 -1.101,2.319 -0.487,0.673 -1.082,1.252 -1.773,1.72 -0.686,0.465 -1.44,0.805 -2.241,1.009 -0.814,0.207 -1.651,0.267 -2.483,0.178 -1.583,-0.162 -3.054,0.743 -3.616,2.216 -1.813,4.758 -4.073,9.159 -6.718,13.08 -2.615,3.875 -5.576,7.239 -8.8,9.998 -3.229,2.762 -6.692,4.892 -10.295,6.331 -3.672,1.467 -7.484,2.21 -11.329,2.21 -1.918,0 -3.472,1.554 -3.472,3.472 0,1.918 1.554,3.472 3.472,3.472 4.732,0 9.41,-0.91 13.904,-2.705 4.309,-1.721 8.426,-4.246 12.233,-7.504 3.702,-3.161 7.08,-6.992 10.045,-11.386 z"
       id="path3738"
       inkscape:connector-curvature="0"
       style="fill:url(#SVGID_2_)" /></g></svg>